<svg width="499" height="301" viewBox="0 0 499 301" fill="none" xmlns="http://www.w3.org/2000/svg">
<path d="M288.021 241.822C286.856 241.822 285.717 242.167 284.748 242.815C283.78 243.462 283.025 244.382 282.579 245.459C282.133 246.535 282.017 247.72 282.244 248.863C282.471 250.006 283.032 251.055 283.856 251.879C284.68 252.703 285.729 253.264 286.872 253.492C288.014 253.719 289.198 253.602 290.274 253.156C291.351 252.71 292.271 251.955 292.918 250.986C293.565 250.018 293.91 248.879 293.91 247.713C293.91 246.151 293.29 244.652 292.185 243.547C291.081 242.443 289.583 241.822 288.021 241.822ZM288.021 251.339C287.304 251.339 286.603 251.126 286.007 250.728C285.411 250.33 284.946 249.763 284.672 249.101C284.397 248.438 284.326 247.709 284.466 247.006C284.605 246.303 284.951 245.657 285.458 245.15C285.964 244.643 286.61 244.297 287.313 244.157C288.017 244.017 288.745 244.089 289.408 244.364C290.07 244.638 290.636 245.103 291.034 245.699C291.433 246.295 291.645 246.996 291.645 247.713V247.713C291.645 248.675 291.263 249.597 290.584 250.277C289.904 250.957 288.982 251.339 288.021 251.339Z" fill="#E4E4E4"/>
<path d="M265.367 237.29H288.02V259.717C288.02 260.5 287.71 261.251 287.156 261.804C286.603 262.358 285.852 262.669 285.069 262.669H268.318C267.535 262.669 266.785 262.358 266.231 261.804C265.678 261.251 265.367 260.5 265.367 259.717V237.29Z" fill="#E4E4E4"/>
<path d="M340.95 263.182H0.45944C0.333168 263.168 0.216455 263.108 0.131671 263.014C0.0468865 262.919 0 262.797 0 262.669C0 262.542 0.0468865 262.42 0.131671 262.325C0.216455 262.231 0.333168 262.171 0.45944 262.157H340.95C341.076 262.171 341.193 262.231 341.278 262.325C341.362 262.42 341.409 262.542 341.409 262.669C341.409 262.797 341.362 262.919 341.278 263.014C341.193 263.108 341.076 263.168 340.95 263.182Z" fill="#3F3D56"/>
<path d="M45.8319 253.496L43.7261 263.912L82.8854 276.994L85.9938 261.622L45.8319 253.496Z" fill="#FFB6B6"/>
<path d="M49.7688 251.528L45.6212 272.039L45.6211 272.04C44.9197 275.507 42.8705 278.553 39.9242 280.508C36.9778 282.464 33.3756 283.168 29.9099 282.467L29.4852 282.381L36.2761 248.798L49.7688 251.528Z" fill="#2F2E41"/>
<path d="M90.2077 110.029C104.893 110.029 116.797 98.121 116.797 83.4318C116.797 68.7426 104.893 56.8347 90.2077 56.8347C75.5228 56.8347 63.6184 68.7426 63.6184 83.4318C63.6184 98.121 75.5228 110.029 90.2077 110.029Z" fill="#FEB8B8"/>
<path d="M115.042 60.486C111.067 54.0288 104.844 49.2708 97.5723 47.1277L94.308 49.5105V46.4165C92.5616 46.1492 90.7939 46.0462 89.0282 46.1089L86.212 48.6578V46.3207C82.0423 46.839 78.0251 48.2158 74.4139 50.3645C70.8027 52.5132 67.6757 55.3869 65.2301 58.8047C59.1142 67.6241 58.0818 79.8938 64.0972 88.7839C65.7483 83.7077 67.7526 78.9447 69.4042 73.8689C70.702 74.0459 72.0174 74.0523 73.3169 73.8879L75.3258 69.1988L75.8871 73.6895C82.1142 73.147 91.3503 71.9553 97.2535 70.8637L96.6793 67.4185L100.114 70.2812C101.922 69.8648 102.996 69.4869 102.907 69.1982C107.298 76.2784 112.671 80.8003 117.061 87.8805C118.729 77.8971 120.648 69.5961 115.042 60.486Z" fill="#2F2E41"/>
<path d="M98.8589 257.478C136.67 257.478 167.322 248.901 167.322 238.322C167.322 227.742 136.67 219.166 98.8589 219.166C61.0476 219.166 30.3955 227.742 30.3955 238.322C30.3955 248.901 61.0476 257.478 98.8589 257.478Z" fill="#2F2E41"/>
<path d="M147.394 151.827C146.479 146.325 145.536 140.717 142.98 135.76C141.3 132.513 138.632 129.419 135.037 128.777C134.329 128.714 133.633 128.553 132.969 128.298C131.915 127.791 117.758 119.707 115.508 118.299C113.576 117.09 110.526 114.852 108.988 114.852C107.441 114.818 101.509 116.199 78.3549 114.388C74.4602 115.952 70.6887 117.807 67.0724 119.937C66.9978 119.888 43.0406 132.757 42.1405 132.723C40.436 132.651 38.8516 133.743 37.8745 135.118C36.8976 136.492 36.4393 138.194 35.9595 139.84C41.1921 151.496 45.9798 163.167 51.2129 174.824C51.458 175.263 51.5881 175.757 51.5914 176.26C51.4862 176.781 51.2636 177.272 50.9404 177.695C48.3741 181.819 48.4557 187.005 48.736 191.852C49.0166 196.698 49.3635 201.818 47.1982 206.162C46.6093 207.355 45.8434 208.446 45.2832 209.639C43.9714 212.34 43.4974 220.979 44.2635 223.882L140.257 226.632C138.193 220.957 147.394 151.827 147.394 151.827Z" fill="#ED0C32"/>
<path d="M27.6619 175.341C27.4703 176.727 27.451 178.131 27.6044 179.522L28.9803 199.286C29.1095 201.149 29.2366 203.007 29.4114 204.866C29.7415 208.472 30.2346 212.049 30.8467 215.622C30.8605 216.129 31.0749 216.61 31.4429 216.959C31.8109 217.308 32.3023 217.497 32.8094 217.484C38.8658 218.766 45.1232 218.715 51.3042 218.366C60.7361 217.839 84.8664 216.843 86.3406 214.927C87.8149 213.012 86.9558 209.913 85.0335 208.364C83.1112 206.815 51.2678 203.039 51.2678 203.039C51.5789 200.572 52.5175 198.249 53.4079 195.908C55.0072 191.754 56.5009 187.465 56.5296 183.015C56.5583 178.566 54.8826 173.888 51.2391 171.34C48.2419 169.247 44.383 168.859 40.7307 168.945C38.0734 169.021 33.482 168.385 31.0548 169.424C29.1341 170.27 28.0207 173.459 27.6619 175.341Z" fill="#FBBEBE"/>
<path d="M147.564 220.019C149.158 219.41 150.915 219.63 152.624 219.861C158.126 220.612 163.708 221.383 168.807 223.582C171.201 224.607 173.48 225.976 175.098 227.991C176.533 229.807 177.372 232.029 178.167 234.217L180.006 239.256C180.787 241.148 181.326 243.132 181.61 245.16C182.184 251.19 178.062 256.874 172.877 260.007C167.692 263.139 161.588 264.254 155.641 265.423C149.694 266.592 143.725 267.884 137.802 269.254C135.04 269.971 132.238 270.523 129.41 270.906C123.071 271.624 116.445 270.566 110.422 272.664C108.028 273.503 105.677 274.747 103.194 275.327C101.543 275.674 99.8747 275.928 98.1956 276.088L86.7963 277.391C84.4783 277.701 82.1446 277.88 79.8065 277.927C74.8275 277.927 69.9296 276.748 65.0947 275.568C64.581 275.478 64.092 275.281 63.6594 274.989C62.8936 274.385 62.726 273.317 62.6158 272.35C62.1274 268.069 61.7003 263.783 61.3343 259.492C61.2194 258.098 61.1333 256.59 61.8945 255.417C62.8521 253.981 64.7195 253.53 66.4239 253.252C73.6512 252.069 80.9728 251.561 88.2941 251.733C91.0755 248.951 95.6623 248.937 99.3059 247.423C100.646 246.807 101.944 246.102 103.189 245.311C109.706 241.508 116.989 239.206 124.508 238.573C125.981 238.528 127.444 238.319 128.87 237.951C131.689 237.074 134.261 234.689 137.157 235.274C137.516 234.282 137.765 232.955 138.592 232.275C139.002 231.926 139.511 231.691 139.89 231.318C140.689 230.508 140.761 229.234 140.641 228.104C140.521 226.974 140.253 225.815 140.545 224.713C140.667 224.296 140.846 223.898 141.077 223.53C142.508 221.053 144.677 219.779 147.564 220.019Z" fill="#2F2E41"/>
<path d="M35.6825 140.194C35.2162 140.683 34.8546 141.261 34.6199 141.895C30.7499 150.619 28.4641 159.963 27.8694 169.489C27.8798 169.954 27.7728 170.413 27.5583 170.825C27.3467 171.099 27.1111 171.354 26.8545 171.587C26.6307 171.852 26.4613 172.159 26.3561 172.49C26.2509 172.821 26.2118 173.169 26.2412 173.515C26.2705 173.861 26.3677 174.198 26.5272 174.506C26.6866 174.814 26.9052 175.088 27.1705 175.312C27.2141 175.349 27.2587 175.384 27.3045 175.418C28.0944 173.931 29.9854 173.445 31.6663 173.316C39.7141 172.679 47.5754 176.424 55.6474 176.142C55.0779 174.173 54.2588 172.282 53.7943 170.289C51.7403 161.444 56.8633 151.813 53.7226 143.293C53.0951 141.589 52.0469 139.912 50.3953 139.165C49.7114 138.889 48.9957 138.7 48.2649 138.601C46.2252 138.233 42.1649 136.657 40.1929 137.289C39.465 137.524 39.178 138.208 38.5746 138.622C37.6581 139.208 36.4422 139.423 35.6825 140.194Z" fill="#ED0C32"/>
<path d="M147.451 169.424C145.024 168.385 140.433 169.021 137.775 168.945C134.123 168.859 130.264 169.247 127.267 171.34C123.623 173.888 121.948 178.566 121.976 183.015C122.005 187.465 123.499 191.754 125.098 195.908C125.988 198.249 126.927 200.572 127.238 203.039C127.238 203.039 95.3947 206.815 93.4725 208.364C91.5502 209.913 90.6911 213.012 92.1653 214.927C93.6396 216.843 139.64 218.766 145.697 217.484C146.204 217.497 146.695 217.308 147.063 216.959C147.431 216.61 147.645 216.129 147.659 215.622C148.271 212.049 148.764 208.472 149.095 204.866C149.269 203.007 149.396 201.149 149.526 199.286L150.902 179.522C151.055 178.131 151.036 176.727 150.844 175.341C150.485 173.459 149.372 170.27 147.451 169.424Z" fill="#FBBEBE"/>
<path d="M139.931 138.622C139.328 138.208 139.041 137.524 138.313 137.289C136.341 136.657 132.281 138.233 130.241 138.601C129.51 138.7 128.794 138.889 128.111 139.165C126.459 139.912 125.411 141.589 124.783 143.293C121.643 151.813 126.765 161.444 124.711 170.289C124.247 172.282 123.428 174.173 122.858 176.142C130.93 176.424 138.792 172.679 146.84 173.316C148.52 173.445 150.411 173.931 151.201 175.418C151.247 175.384 151.292 175.349 151.335 175.312C151.601 175.088 151.819 174.814 151.979 174.506C152.138 174.198 152.235 173.861 152.265 173.515C152.294 173.169 152.255 172.821 152.15 172.49C152.044 172.159 151.875 171.852 151.651 171.587C151.395 171.354 151.159 171.099 150.948 170.825C150.733 170.413 150.626 169.954 150.636 169.489C150.042 159.963 147.756 150.619 143.886 141.895C143.651 141.261 143.29 140.683 142.823 140.194C142.064 139.423 140.848 139.208 139.931 138.622Z" fill="#ED0C32"/>
<path d="M153.393 268.365L151.994 278.898L110.71 278.511L112.775 262.964L153.393 268.365Z" fill="#FFB6B6"/>
<path d="M163.958 267.035L159.445 301L159.016 300.943C155.511 300.477 152.334 298.637 150.185 295.828C148.036 293.02 147.09 289.472 147.556 285.966L147.556 285.965L150.312 265.221L163.958 267.035Z" fill="#2F2E41"/>
<path d="M56.2682 225.349C56.2682 225.828 55.5167 225.349 55.448 224.836C54.9216 220.962 51.8475 217.767 48.2664 216.216C44.6854 214.664 40.6061 214.583 36.7282 214.951C30.8635 215.507 24.2802 217.753 22.1354 223.236C21.628 224.518 16.8741 235.932 17.338 238.499C18.5877 245.347 23.2698 251.205 28.9433 255.261C34.6168 259.317 41.2458 261.741 47.8584 263.927C65.3414 269.694 83.2787 273.98 101.48 276.737C104.429 277.183 107.408 277.595 110.232 278.543C112.76 279.39 115.125 280.659 117.596 281.656C123.341 283.963 129.522 284.787 135.645 285.597C136.689 285.731 137.885 285.827 138.656 285.118C139.652 284.195 139.323 282.585 139.039 281.258C138 276.214 138.872 270.964 141.486 266.527C142.511 264.803 143.844 263.036 143.65 261.041C143.421 258.713 141.103 257.066 138.795 256.692C136.488 256.318 134.142 256.87 131.824 257.171C131.03 257.354 130.197 257.271 129.454 256.936C129.11 256.704 128.797 256.427 128.525 256.113C126.929 254.572 124.886 253.577 122.689 253.27C120.493 252.963 118.255 253.36 116.298 254.403C115.441 254.882 114.145 253.814 113.253 253.412L103.184 248.853C91.6173 243.618 79.993 238.36 67.7556 235.046C66.7792 234.854 65.8512 234.468 65.0265 233.91C64.4186 233.431 63.9829 232.782 63.4226 232.249C62.2016 231.094 60.5008 230.634 59.0373 229.816C57.5738 228.997 55.9329 226.991 56.2682 225.349Z" fill="#2F2E41"/>
<path d="M82.3328 218.428C86.2963 218.428 89.5093 215.214 89.5093 211.25C89.5093 207.285 86.2963 204.071 82.3328 204.071C78.3694 204.071 75.1564 207.285 75.1564 211.25C75.1564 215.214 78.3694 218.428 82.3328 218.428Z" fill="#FBBEBE"/>
<path d="M98.2236 218.428C102.187 218.428 105.4 215.214 105.4 211.25C105.4 207.285 102.187 204.071 98.2236 204.071C94.2601 204.071 91.0471 207.285 91.0471 211.25C91.0471 215.214 94.2601 218.428 98.2236 218.428Z" fill="#FBBEBE"/>
<path d="M142.522 227.426H43.9284C42.7773 227.424 41.6737 226.966 40.8598 226.152C40.0458 225.338 39.5879 224.234 39.5865 223.083V163.251C39.5879 162.1 40.0458 160.996 40.8598 160.182C41.6737 159.367 42.7773 158.91 43.9284 158.908H142.522C143.673 158.91 144.777 159.367 145.591 160.182C146.405 160.996 146.863 162.1 146.864 163.251V223.083C146.863 224.234 146.405 225.338 145.591 226.152C144.777 226.966 143.673 227.424 142.522 227.426Z" fill="#3F3D56"/>
<path d="M92.986 196.04C94.5725 196.04 95.8587 194.754 95.8587 193.167C95.8587 191.58 94.5725 190.293 92.986 190.293C91.3995 190.293 90.1134 191.58 90.1134 193.167C90.1134 194.754 91.3995 196.04 92.986 196.04Z" fill="white"/>
<path d="M444.955 107.91H316.859C316.18 107.91 315.528 107.639 315.048 107.159C314.567 106.678 314.297 106.026 314.296 105.347V81.1958H315.321V105.347C315.322 105.754 315.484 106.145 315.772 106.434C316.061 106.722 316.451 106.884 316.859 106.885H444.955C445.363 106.884 445.754 106.722 446.042 106.434C446.33 106.145 446.493 105.754 446.493 105.347V81.0271H447.518V105.347C447.517 106.026 447.247 106.678 446.767 107.159C446.286 107.639 445.635 107.91 444.955 107.91Z" fill="#3F3D56"/>
<path d="M491.391 80.6831H190.379V81.7086H491.391V80.6831Z" fill="#3F3D56"/>
<path d="M190.401 89.9362C195.271 89.9362 199.219 85.9872 199.219 81.1158C199.219 76.2444 195.271 72.2954 190.401 72.2954C185.531 72.2954 181.583 76.2444 181.583 81.1158C181.583 85.9872 185.531 89.9362 190.401 89.9362Z" fill="#080808"/>
<path d="M280.007 89.9362C284.877 89.9362 288.825 85.9872 288.825 81.1158C288.825 76.2444 284.877 72.2954 280.007 72.2954C275.137 72.2954 271.189 76.2444 271.189 81.1158C271.189 85.9872 275.137 89.9362 280.007 89.9362Z" fill="#080808"/>
<path d="M340.818 115.862C345.688 115.862 349.636 111.912 349.636 107.041C349.636 102.17 345.688 98.2207 340.818 98.2207C335.948 98.2207 332 102.17 332 107.041C332 111.912 335.948 115.862 340.818 115.862Z" fill="#3F3D56"/>
<path d="M387.048 115.862C391.918 115.862 395.866 111.912 395.866 107.041C395.866 102.17 391.918 98.2207 387.048 98.2207C382.178 98.2207 378.23 102.17 378.23 107.041C378.23 111.912 382.178 115.862 387.048 115.862Z" fill="#CCCCCC"/>
<path d="M364.646 89.9362C369.516 89.9362 373.464 85.9872 373.464 81.1158C373.464 76.2444 369.516 72.2954 364.646 72.2954C359.776 72.2954 355.828 76.2444 355.828 81.1158C355.828 85.9872 359.776 89.9362 364.646 89.9362Z" fill="#080808"/>
<path d="M490.182 89.9362C495.052 89.9362 499 85.9872 499 81.1158C499 76.2444 495.052 72.2954 490.182 72.2954C485.312 72.2954 481.364 76.2444 481.364 81.1158C481.364 85.9872 485.312 89.9362 490.182 89.9362Z" fill="#080808"/>
<path d="M447.006 89.9362C451.876 89.9362 455.823 85.9872 455.823 81.1158C455.823 76.2444 451.876 72.2954 447.006 72.2954C442.136 72.2954 438.188 76.2444 438.188 81.1158C438.188 85.9872 442.136 89.9362 447.006 89.9362Z" fill="#080808"/>
<path d="M348.799 0H332.444V11.2754H348.799V0Z" fill="#3F3D56"/>
<path d="M198.643 0H182.288V11.2754H198.643V0Z" fill="#080808"/>
<path d="M254.042 0H237.687V11.2754H254.042V0Z" fill="#CCCCCC"/>
<path d="M217.745 81.7086C217.609 81.7086 217.479 81.6546 217.382 81.5584C217.286 81.4622 217.232 81.3318 217.232 81.1958V55.8851C217.233 55.2053 217.503 54.5537 217.984 54.0731C218.464 53.5924 219.116 53.3221 219.795 53.3213H244.746C244.882 53.3213 245.013 53.3753 245.109 53.4715C245.205 53.5676 245.259 53.6981 245.259 53.834C245.259 53.97 245.205 54.1005 245.109 54.1966C245.013 54.2928 244.882 54.3468 244.746 54.3468H219.795C219.388 54.3472 218.997 54.5095 218.708 54.7978C218.42 55.0862 218.258 55.4772 218.258 55.8851V81.1958C218.257 81.3318 218.203 81.4622 218.107 81.5584C218.011 81.6546 217.881 81.7086 217.745 81.7086Z" fill="#3F3D56"/>
<path d="M245.919 62.4628C250.789 62.4628 254.737 58.5138 254.737 53.6424C254.737 48.7711 250.789 44.822 245.919 44.822C241.049 44.822 237.101 48.7711 237.101 53.6424C237.101 58.5138 241.049 62.4628 245.919 62.4628Z" fill="#E6E6E6"/>
<path d="M415.097 81.1958H414.072V55.8851C414.073 55.2053 414.343 54.5537 414.824 54.0731C415.304 53.5924 415.956 53.3221 416.635 53.3213H441.586V54.3468H416.635C416.228 54.3472 415.837 54.5095 415.548 54.7978C415.26 55.0862 415.098 55.4772 415.097 55.8851V81.1958Z" fill="#3F3D56"/>
<path d="M442.759 62.4628C447.629 62.4628 451.577 58.5138 451.577 53.6424C451.577 48.7711 447.629 44.822 442.759 44.822C437.889 44.822 433.941 48.7711 433.941 53.6424C433.941 58.5138 437.889 62.4628 442.759 62.4628Z" fill="#E6E6E6"/>
</svg>
