<svg width="624" height="319" viewBox="0 0 624 319" fill="none" xmlns="http://www.w3.org/2000/svg">
<g clip-path="url(#clip0_368_482)">
<path d="M512.173 285.392H126.281C122.694 285.392 119.777 282.474 119.777 278.888C119.777 275.301 122.694 272.383 126.281 272.383H512.173C515.76 272.383 518.677 275.301 518.677 278.888C518.677 282.474 515.76 285.392 512.173 285.392Z" fill="#E6E6E6"/>
<path d="M426.54 319H211.914C208.328 319 205.41 316.082 205.41 312.495C205.41 308.909 208.328 305.991 211.914 305.991H426.54C430.126 305.991 433.044 308.909 433.044 312.495C433.044 316.082 430.126 319 426.54 319Z" fill="#E6E6E6"/>
<path d="M169.223 58.5168L193.543 48.2803L203.975 69.6678L178.418 80.1007L169.223 58.5168Z" fill="#FFB6B6"/>
<path opacity="0.1" d="M169.223 58.5168L193.543 48.2803L203.975 69.6678L178.418 80.1007L169.223 58.5168Z" fill="black"/>
<path d="M172.68 50.3669L196.673 78.0141C196.673 78.0141 179.982 130.7 163.292 135.395C146.602 140.09 115.829 163.042 115.829 163.042L77.2324 138.003L96.0091 110.356C96.0091 110.356 141.386 48.2803 153.382 48.2803C165.378 48.2803 172.68 50.3669 172.68 50.3669V50.3669Z" fill="#6C63FF"/>
<path d="M140.265 230.595H84.4145L80.8834 225.874L66.4671 206.6L63.1499 202.166C63.1499 202.166 50.6321 179.213 53.24 158.347C55.8479 137.481 82.9697 132.787 82.9697 132.787H84.0859L117.289 161.967L115.307 189.124L125.822 206.6L140.265 230.595Z" fill="#2F2E41"/>
<path d="M95.8526 230.596H80.8834V208.426L95.8526 230.596Z" fill="#2F2E41"/>
<path d="M507.335 75.5273L512.918 110.358L477.644 110.813V80.5307L507.335 75.5273Z" fill="#FFB6B6"/>
<path opacity="0.1" d="M507.335 75.5273L512.918 110.358L477.644 110.813V80.5307L507.335 75.5273Z" fill="black"/>
<path d="M591.358 196.939L589.496 206.6L584.875 230.596H492.04C492.765 225.217 493.756 217.476 494.814 209.119C494.919 208.285 495.028 207.445 495.133 206.6C497.787 185.593 500.693 161.822 500.693 161.822L512.897 163.303L536.577 166.172L546.226 167.341L572.065 170.476C584.947 172.036 593.809 184.19 591.358 196.939Z" fill="#F2F2F2"/>
<path d="M418.717 196.939L416.855 206.6L412.234 230.596H319.399C320.124 225.217 321.115 217.476 322.174 209.119C322.278 208.285 322.388 207.445 322.492 206.6C325.147 185.593 328.052 161.822 328.052 161.822L340.257 163.303L363.936 166.172L373.585 167.341L399.424 170.476C412.307 172.036 421.168 184.19 418.717 196.939Z" fill="#F2F2F2"/>
<path d="M550.096 230.596H499.743C500.51 229.693 500.943 229.171 500.943 229.171L516.037 226.678L547.139 221.545C547.139 221.545 548.557 225.212 550.096 230.596V230.596Z" fill="#2F2E41"/>
<path d="M480.826 230.596H404.786C405.542 229.093 406.324 227.586 407.128 226.083C408.202 224.075 409.349 222.286 410.565 220.695C411.373 219.636 412.208 218.666 413.068 217.779C415.598 215.176 418.352 213.282 421.252 211.983C431.605 207.325 443.805 210.178 454.194 214.821C458.096 216.563 461.741 218.556 464.939 220.497C470.572 223.919 474.823 227.184 476.632 228.634C477.258 229.13 477.592 229.417 477.592 229.417L480.826 230.596V230.596Z" fill="#2F2E41"/>
<path d="M420.501 230.595H409.715L412.557 227.293L414.164 225.426L414.852 225.984L420.501 230.595Z" fill="#FFB6B6"/>
<path d="M553.778 230.595H460.897L464.939 220.496L470.493 206.6L473.284 199.62L470.978 189.808C470.978 189.808 469.841 189.005 468.11 187.56C461.94 182.447 448.207 169.281 451.362 155.76C454.951 140.371 459.457 110.382 460.411 103.919C460.531 103.11 460.594 102.672 460.594 102.672L473.998 99.3856L474.442 99.2761L475.881 98.9214H511.786L538.194 116.809L538.188 116.996L536.577 166.172L535.888 187.21C535.888 187.21 535.059 190.246 535.257 194.962C535.388 198.196 535.998 202.218 537.688 206.6C539.477 211.258 542.486 216.318 547.426 221.258C551.155 224.988 552.965 228.128 553.778 230.595V230.595Z" fill="#ED0C32"/>
<path d="M546.226 167.341C545.344 174.571 544.5 179.709 544.5 179.709L535.257 194.962L528.206 206.6L516.037 226.678L514.253 229.625L512.981 230.595H474.807L476.632 228.634L494.814 209.119L497.167 206.6L500.979 202.505L512.897 163.303L526.943 117.101C526.943 117.101 532.634 115.118 538.188 116.996C541.109 117.982 543.999 120.038 545.986 124.023C549.788 131.629 547.937 153.381 546.226 167.341Z" fill="#ED0C32"/>
<path d="M479.073 166.078L468.11 187.56L458.393 206.6L454.194 214.821L452.541 218.066L438.37 230.595H406.283L411.571 224.023L413.538 221.571L421.252 211.983L425.581 206.6L437.332 191.983L440.466 125.412C440.986 114.37 449.398 105.444 460.346 103.93C460.369 103.927 460.391 103.923 460.411 103.919C463.969 103.204 469.622 102.996 473.998 107.226C474.15 107.367 474.296 107.518 474.442 107.675C475.177 108.452 475.871 109.365 476.507 110.434C476.57 110.539 476.632 110.648 476.69 110.758C476.872 111.091 477.05 111.457 477.211 111.848C482.797 124.858 479.073 166.078 479.073 166.078L479.073 166.078Z" fill="#ED0C32"/>
<path d="M336.514 68.9502L358.411 99.9225L320.215 101.063L316.115 71.9567L336.514 68.9502Z" fill="#A0616A"/>
<path opacity="0.1" d="M336.514 68.9502L358.411 99.9225L320.215 101.063L316.115 71.9567L336.514 68.9502Z" fill="black"/>
<path d="M228.525 133.123C225.715 125.016 219.255 119.895 214.097 121.685C208.939 123.474 207.037 131.495 209.849 139.604C210.928 142.858 212.77 145.807 215.222 148.204L227.56 182.4L243.482 176.267L229.628 143.207C230.071 139.805 229.692 136.348 228.525 133.123Z" fill="#A0616A"/>
<path d="M376.75 117.341L376.72 148.906L373.783 160.565L367.743 184.545L363.347 206.6L360.071 223.032L358.903 228.9C358.021 229.49 357.145 230.053 356.269 230.596H279.978C275.644 227.993 273.219 225.969 273.219 225.969C273.219 225.969 274.418 224.842 275.79 223.032C278.106 219.975 280.907 214.967 279.191 210.184C278.831 209.182 278.737 207.961 278.847 206.6C279.545 197.617 288.965 182.427 288.965 182.427L287.014 159.881L286.159 150.001L292.19 101.827L311.848 90.3978L315.242 90.0694L348.743 88.2593L362.589 89.0573L363.22 89.2295L376.75 117.341L376.75 117.341Z" fill="#CCCCCC"/>
<path d="M378.238 230.596H361.547L360.812 223.032L360.796 222.881L365.522 222.557L377.815 221.717L378.029 226.245L378.196 229.719L378.238 230.596Z" fill="#FFB6B6"/>
<path d="M382.346 124.973L389.358 166.115L383.636 206.6L382.744 212.901L381.169 224.028L380.684 227.45L380.7 227.82L380.82 230.595H361L360.269 223.032L360.207 222.353L358.715 206.861L358.689 206.6L355.523 173.746L361.73 150.001L362.189 148.254V148.248L364.889 107.591L362.798 89.1146L362.777 88.9424C362.819 88.9685 362.855 88.9946 362.897 89.0206C363.007 89.0885 363.116 89.1563 363.22 89.2293C375.404 96.9602 382.665 110.523 382.346 124.973Z" fill="#CCCCCC"/>
<path d="M299.291 109.71L291.669 101.826C291.669 101.826 275.353 109.183 274.54 113.264C273.726 117.345 244.919 177.289 244.919 177.289L232.386 143.811L216.072 154.704C216.072 154.704 229.162 206.681 241.404 209.122C253.647 211.562 294.677 147.602 294.677 147.602L299.29 109.71H299.291Z" fill="#CCCCCC"/>
<path d="M488.641 91.0298C502.646 91.0298 514 79.6745 514 65.667C514 51.6595 502.646 40.3042 488.641 40.3042C474.635 40.3042 463.281 51.6595 463.281 65.667C463.281 79.6745 474.635 91.0298 488.641 91.0298Z" fill="#FFB6B6"/>
<path d="M499.156 75.6383C499.156 75.6383 496.527 68.3944 495.037 64.6355C493.546 60.8766 494.518 55.9987 494.518 55.9987C494.518 55.9987 474.625 51.6072 466.835 55.9599C459.045 60.3126 458.521 38.4193 466.428 32.4607C466.428 32.4607 468.545 36.1408 467.723 37.1989L466.902 38.2569C466.902 38.2569 472.884 25.6023 482.987 24.9688C482.987 24.9688 487.776 28.7901 485.971 30.0515C484.167 31.3128 499.277 22.921 501.905 30.1649C501.905 30.1649 511.54 31.8816 509.663 35.1728L509.821 37.4443C509.821 37.4443 518.553 36.5376 517.931 42.7262C517.931 42.7262 514.993 42.1407 513.114 43.3953C511.235 44.6499 517.583 50.5988 517.583 50.5988C517.583 50.5988 521.399 75.3881 508.167 82.5253C508.167 82.5253 510.314 71.2441 505.263 73.0883C500.213 74.9325 499.156 75.6382 499.156 75.6382V75.6383Z" fill="#2F2E41"/>
<path d="M608.764 236.715H15.2357C6.83469 236.715 0 229.88 0 221.478C0 213.075 6.83469 206.24 15.2357 206.24H608.764C617.165 206.24 624 213.075 624 221.478C624 229.88 617.165 236.715 608.764 236.715Z" fill="#E6E6E6"/>
<path d="M373.276 159.793L372.122 213.65C372.011 218.863 367.753 223.031 362.539 223.031H263.481C258.39 223.031 254.188 219.052 253.91 213.968L250.966 160.111C250.666 154.619 255.038 150.001 260.537 150.001H363.693C369.067 150.001 373.391 154.419 373.276 159.793Z" fill="#3F3D56"/>
<path d="M588.522 159.793L587.368 213.65C587.256 218.863 582.999 223.031 577.785 223.031H478.727C473.636 223.031 469.433 219.052 469.155 213.968L466.211 160.111C465.911 154.619 470.283 150.001 475.783 150.001H578.939C584.313 150.001 588.637 154.419 588.522 159.793Z" fill="#3F3D56"/>
<path d="M213.363 71.5173C226.452 71.5173 237.063 60.905 237.063 47.8141C237.063 34.7231 226.452 24.1108 213.363 24.1108C200.274 24.1108 189.663 34.7231 189.663 47.8141C189.663 60.905 200.274 71.5173 213.363 71.5173Z" fill="#FFB6B6"/>
<path d="M173.723 109.834L176.331 138.003L194.065 209.469L178.744 214.839L152.861 136.96L149.286 105.661L173.723 109.834Z" fill="#FFB6B6"/>
<path d="M166.669 159.793L165.515 213.65C165.404 218.863 161.146 223.031 155.932 223.031H56.8739C51.7833 223.031 47.5805 219.052 47.3027 213.968L44.3588 160.111C44.0586 154.619 48.4305 150.001 53.9301 150.001H157.086C162.46 150.001 166.784 154.419 166.669 159.793H166.669Z" fill="#3F3D56"/>
<path d="M196.889 223.396C207.226 223.396 215.606 219.689 215.606 215.116C215.606 210.543 207.226 206.836 196.889 206.836C186.551 206.836 178.172 210.543 178.172 215.116C178.172 219.689 186.551 223.396 196.889 223.396Z" fill="#FFB6B6"/>
<path d="M136.953 114.141L147.645 57.148C147.645 57.148 177.374 52.9748 178.418 62.8861C179.461 72.7974 177.672 121.235 177.672 121.235L136.953 114.141V114.141Z" fill="#6C63FF"/>
<path d="M203.796 51.5407C203.796 51.5407 218.457 46.3076 224.641 43.4919C230.825 40.6762 243.111 60.3154 243.384 49.9433C243.658 39.5712 239.412 35.2216 239.412 35.2216C239.412 35.2216 238.352 12.5312 215.495 15.368C215.495 15.368 220.523 4.01579 204.02 2.26037C187.517 0.504951 161.842 40.3627 164.142 46.3192C166.441 52.2758 169.197 57.2003 162.674 63.5691C156.15 69.938 143.935 105.882 153.229 115.554C162.523 125.227 163.133 129.424 156.765 135.441C150.397 141.459 135.345 154.543 151.62 156.814C167.894 159.086 150.131 157.389 162.264 146.715C174.397 136.042 192.101 136.478 185.491 119.353C178.88 102.228 190.365 77.6877 188.928 73.9648C187.491 70.242 192.148 46.6018 192.148 46.6018C192.148 46.6018 202.986 45.0093 203.796 51.5407V51.5407Z" fill="#2F2E41"/>
<path d="M324.806 80.1605C339.054 80.1605 350.605 68.6083 350.605 54.3579C350.605 40.1074 339.054 28.5552 324.806 28.5552C310.557 28.5552 299.006 40.1074 299.006 54.3579C299.006 68.6083 310.557 80.1605 324.806 80.1605Z" fill="#A0616A"/>
<path d="M326.865 19.6682C326.118 20.104 325.118 19.4446 324.879 18.6139C324.639 17.7831 324.918 16.9011 325.195 16.0821L326.587 11.9586C327.574 9.03412 328.622 6.00747 330.76 3.78158C333.987 0.42195 339.116 -0.432723 343.732 0.186457C349.661 0.98161 355.511 4.19249 358.268 9.50211C361.025 14.8117 359.851 22.2205 354.87 25.5332C361.969 33.6715 364.444 42.7413 364.053 53.5346C363.662 64.3278 351.902 74.2612 344.233 81.8646C342.52 80.8262 340.963 75.96 341.905 74.1923C342.847 72.4245 341.497 70.3764 342.664 68.7481C343.83 67.1198 344.806 69.7126 343.627 68.0935C342.882 67.0718 345.787 64.7214 344.681 64.1099C339.331 61.1523 337.551 54.4829 334.191 49.3757C330.138 43.2154 323.202 39.0436 315.861 38.3515C311.818 37.9702 307.547 38.6608 304.232 41.0087C300.918 43.3566 298.772 47.5523 299.54 51.5411C297.55 49.5197 296.559 46.5574 296.933 43.7449C297.306 40.9325 299.037 38.3318 301.486 36.9006C299.997 31.9748 301.272 26.3088 304.729 22.4971C308.186 18.6854 322.208 19.3346 327.255 20.3378L326.865 19.6682Z" fill="#2F2E41"/>
<path d="M327.648 38.501C334.332 39.2226 339.158 45.0133 343.234 50.361C345.582 53.4432 348.043 56.8471 347.984 60.7221C347.924 64.6398 345.305 68.0002 344.054 71.713C342.008 77.7817 344.002 85.0021 348.872 89.1603C344.06 90.0736 338.857 86.4649 338.027 81.637C337.059 76.0168 341.319 70.5924 340.815 64.9119C340.37 59.9073 336.427 56.0557 333.075 52.3138C329.722 48.5719 326.574 43.6064 328.116 38.8248L327.648 38.501Z" fill="#2F2E41"/>
</g>
<defs>
<clipPath id="clip0_368_482">
<rect width="624" height="319" fill="white"/>
</clipPath>
</defs>
</svg>
